Normalized EMG Linear Envelopes
nRows=261
nColumns=4

endheader
time	 med_gas_r	  soleus_r	 tib_ant_r	
3.39293	  0.045422	  0.072279	  0.026992	
3.42619	  0.045394	  0.071860	  0.026011	
3.45946	  0.045344	  0.071724	  0.025174	
3.49272	  0.045247	  0.071929	  0.024555	
3.52598	  0.045150	  0.072323	  0.024198	
3.55925	  0.045113	  0.072699	  0.024116	
3.59251	  0.045125	  0.072928	  0.024270	
3.62578	  0.045069	  0.072963	  0.024567	
3.65904	  0.044792	  0.072731	  0.024871	
3.6923	  0.044212	  0.072089	  0.025058	
3.72557	  0.043389	  0.070930	  0.025082	
3.75883	  0.042502	  0.069337	  0.025008	
3.7921	  0.041761	  0.067611	  0.024975	
3.82536	  0.041339	  0.066146	  0.025121	
3.85862	  0.041351	  0.065250	  0.025507	
3.89189	  0.041848	  0.065064	  0.026105	
3.92515	  0.042778	  0.065578	  0.026813	
3.95842	  0.043936	  0.066656	  0.027503	
3.99168	  0.044981	  0.068021	  0.028053	
4.02494	  0.045576	  0.069276	  0.028371	
4.05821	  0.045569	  0.070029	  0.028422	
4.09147	  0.045101	  0.070093	  0.028233	
4.12474	  0.044522	  0.069601	  0.027881	
4.158	  0.044186	  0.068923	  0.027465	
4.19126	  0.044272	  0.068475	  0.027070	
4.22453	  0.044756	  0.068549	  0.026746	
4.25779	  0.045502	  0.069259	  0.026497	
4.29106	  0.046373	  0.070566	  0.026286	
4.32432	  0.047263	  0.072331	  0.026044	
4.35758	  0.048078	  0.074356	  0.025710	
4.39085	  0.048706	  0.076391	  0.025259	
4.42411	  0.049033	  0.078137	  0.024730	
4.45738	  0.048971	  0.079267	  0.024214	
4.49064	  0.048498	  0.079498	  0.023822	
4.5239	  0.047687	  0.078686	  0.023635	
4.55717	  0.046715	  0.076899	  0.023676	
4.59043	  0.045826	  0.074400	  0.023924	
4.6237	  0.045239	  0.071574	  0.024340	
4.65696	  0.045041	  0.068830	  0.024882	
4.69022	  0.045138	  0.066527	  0.025506	
4.72349	  0.045327	  0.064913	  0.026150	
4.75675	  0.045447	  0.064099	  0.026736	
4.79002	  0.045513	  0.064044	  0.027196	
4.82328	  0.045708	  0.064595	  0.027505	
4.85654	  0.046234	  0.065562	  0.027690	
4.88981	  0.047132	  0.066794	  0.027822	
4.92307	  0.048229	  0.068201	  0.027979	
4.95634	  0.049235	  0.069698	  0.028200	
4.9896	  0.049934	  0.071127	  0.028456	
5.02286	  0.050278	  0.072239	  0.028646	
5.05613	  0.050347	  0.072779	  0.028646	
5.08939	  0.050230	  0.072638	  0.028382	
5.12266	  0.049944	  0.071938	  0.027886	
5.15592	  0.049473	  0.070981	  0.027302	
5.18918	  0.048846	  0.070089	  0.026814	
5.22245	  0.048181	  0.069463	  0.026565	
5.25571	  0.047624	  0.069158	  0.026594	
5.28898	  0.047250	  0.069140	  0.026847	
5.32224	  0.047011	  0.069364	  0.027211	
5.3555	  0.046786	  0.069779	  0.027571	
5.38877	  0.046510	  0.070310	  0.027845	
5.42203	  0.046232	  0.070853	  0.027999	
5.4553	  0.046071	  0.071290	  0.028027	
5.48856	  0.046105	  0.071504	  0.027911	
5.52182	  0.046311	  0.071375	  0.027599	
5.55509	  0.046590	  0.070814	  0.027011	
5.58835	  0.046824	  0.069841	  0.026090	
5.62162	  0.046919	  0.068658	  0.024839	
5.65488	  0.046814	  0.067623	  0.023343	
5.68814	  0.046530	  0.067111	  0.021773	
5.72141	  0.046211	  0.067331	  0.020413	
5.75467	  0.046117	  0.068243	  0.019662	
5.78794	  0.046537	  0.069626	  0.020012	
5.8212	  0.047659	  0.071231	  0.022024	
5.85446	  0.049516	  0.072910	  0.026351	
5.88773	  0.051989	  0.074674	  0.033783	
5.92099	  0.054839	  0.076658	  0.045138	
5.95426	  0.057730	  0.079031	  0.060887	
5.98752	  0.060277	  0.081861	  0.080725	
6.02078	  0.062179	  0.085037	  0.103637	
6.05405	  0.063382	  0.088324	  0.128747	
6.08731	  0.064125	  0.091557	  0.156394	
6.12058	  0.064795	  0.094814	  0.188256	
6.15384	  0.065679	  0.098378	  0.225968	
6.1871	  0.066782	  0.102515	  0.269218	
6.22037	  0.067833	  0.107294	  0.315100	
6.25363	  0.068471	  0.112600	  0.359360	
6.2869	  0.068485	  0.118258	  0.398287	
6.32016	  0.067947	  0.124035	  0.429583	
6.35342	  0.067179	  0.129520	  0.451965	
6.38669	  0.066579	  0.134070	  0.464619	
6.41995	  0.066462	  0.137004	  0.467354	
6.45322	  0.067016	  0.137945	  0.461038	
6.48648	  0.068367	  0.137076	  0.447456	
6.51974	  0.070586	  0.135081	  0.428531	
6.55301	  0.073572	  0.132815	  0.405722	
6.58627	  0.076915	  0.130924	  0.380188	
6.61954	  0.079937	  0.129659	  0.353349	
6.6528	  0.081966	  0.128967	  0.327017	
6.68606	  0.082668	  0.128752	  0.302854	
6.71933	  0.082158	  0.129053	  0.281792	
6.75259	  0.080836	  0.130030	  0.263949	
6.78586	  0.079122	  0.131761	  0.248928	
6.81912	  0.077355	  0.134036	  0.236031	
6.85238	  0.075856	  0.136314	  0.224359	
6.88565	  0.074974	  0.137866	  0.213111	
6.91891	  0.074939	  0.138005	  0.202063	
6.95218	  0.075675	  0.136241	  0.191772	
6.98544	  0.076813	  0.132372	  0.183112	
7.0187	  0.077961	  0.126598	  0.176515	
7.05197	  0.078972	  0.119674	  0.171634	
7.08523	  0.079936	  0.112905	  0.167772	
7.1185	  0.080958	  0.107821	  0.164627	
7.15176	  0.081999	  0.105608	  0.162603	
7.18502	  0.082971	  0.106654	  0.162413	
7.21829	  0.083959	  0.110490	  0.164431	
7.25155	  0.085280	  0.116156	  0.168473	
7.28482	  0.087294	  0.122657	  0.174156	
7.31808	  0.090169	  0.129169	  0.181358	
7.35134	  0.093859	  0.134944	  0.190233	
7.38461	  0.098240	  0.139219	  0.200774	
7.41787	  0.103126	  0.141377	  0.212404	
7.45114	  0.108045	  0.141285	  0.224011	
7.4844	  0.112123	  0.139413	  0.234382	
7.51766	  0.114441	  0.136570	  0.242641	
7.55093	  0.114758	  0.133455	  0.248297	
7.58419	  0.113936	  0.130425	  0.250984	
7.61746	  0.113597	  0.127607	  0.250331	
7.65072	  0.115205	  0.125113	  0.246283	
7.68398	  0.119233	  0.123096	  0.239586	
7.71725	  0.124989	  0.121632	  0.231831	
7.75051	  0.131209	  0.120640	  0.224805	
7.78378	  0.136952	  0.119944	  0.219597	
7.81704	  0.142156	  0.119383	  0.216163	
7.8503	  0.147408	  0.118850	  0.213606	
7.88357	  0.153174	  0.118274	  0.210865	
7.91683	  0.159221	  0.117639	  0.207371	
7.9501	  0.164753	  0.117056	  0.203395	
7.98336	  0.169115	  0.116780	  0.199977	
8.01662	  0.172378	  0.117117	  0.198442	
8.04989	  0.175269	  0.118261	  0.199737	
8.08315	  0.178535	  0.120201	  0.203959	
8.11642	  0.182331	  0.122782	  0.210279	
8.14968	  0.186201	  0.125836	  0.217216	
8.18294	  0.189618	  0.129252	  0.223081	
8.21621	  0.192570	  0.132911	  0.226456	
8.24947	  0.195625	  0.136582	  0.226617	
8.28274	  0.199425	  0.139883	  0.223807	
8.316	  0.204033	  0.142382	  0.219200	
8.34926	  0.208670	  0.143783	  0.214487	
8.38253	  0.212075	  0.144134	  0.211191	
8.41579	  0.213235	  0.143905	  0.210123	
8.44906	  0.211942	  0.143831	  0.211283	
8.48232	  0.208855	  0.144530	  0.214178	
8.51558	  0.205166	  0.146143	  0.218174	
8.54885	  0.202191	  0.148300	  0.222675	
8.58211	  0.201048	  0.150438	  0.227225	
8.61538	  0.202385	  0.152192	  0.231649	
8.64864	  0.206203	  0.153493	  0.236063	
8.6819	  0.211924	  0.154353	  0.240568	
8.71517	  0.218765	  0.154615	  0.244904	
8.74843	  0.226230	  0.154010	  0.248502	
8.7817	  0.234333	  0.152438	  0.251016	
8.81496	  0.243352	  0.150190	  0.252776	
8.84822	  0.253289	  0.147920	  0.254586	
8.88149	  0.263457	  0.146428	  0.256959	
8.91475	  0.272514	  0.146411	  0.259521	
8.94802	  0.278860	  0.148264	  0.261180	
8.98128	  0.281175	  0.151968	  0.260944	
9.01454	  0.278867	  0.157095	  0.258730	
9.04781	  0.272342	  0.162942	  0.255630	
9.08107	  0.262983	  0.168744	  0.253524	
9.11434	  0.252707	  0.173898	  0.254263	
9.1476	  0.243221	  0.178082	  0.258799	
9.18086	  0.235491	  0.181224	  0.266724	
9.21413	  0.229901	  0.183355	  0.276531	
9.24739	  0.226901	  0.184464	  0.286473	
9.28066	  0.227298	  0.184499	  0.295451	
9.31392	  0.231613	  0.183478	  0.303380	
9.34718	  0.239104	  0.181649	  0.310925	
9.38045	  0.247611	  0.179587	  0.318906	
9.41371	  0.254631	  0.178146	  0.327812	
9.44698	  0.258637	  0.178195	  0.337717	
9.48024	  0.259466	  0.180163	  0.348612	
9.5135	  0.257642	  0.183617	  0.360865	
9.54677	  0.253618	  0.187225	  0.375340	
9.58003	  0.247749	  0.189280	  0.392885	
9.6133	  0.240800	  0.188591	  0.413454	
9.64656	  0.234127	  0.185210	  0.435553	
9.67982	  0.229154	  0.180507	  0.456484	
9.71309	  0.226637	  0.176505	  0.473229	
9.74635	  0.226482	  0.174899	  0.483434	
9.77962	  0.228135	  0.176382	  0.486064	
9.81288	  0.231042	  0.180630	  0.481579	
9.84614	  0.234778	  0.186730	  0.471593	
9.87941	  0.239020	  0.193563	  0.458246	
9.91267	  0.243631	  0.199898	  0.443724	
9.94594	  0.248771	  0.204449	  0.430162	
9.9792	  0.254746	  0.206259	  0.419591	
10.0125	  0.261619	  0.205343	  0.413530	
10.0457	  0.268982	  0.203032	  0.412352	
10.079	  0.276103	  0.201549	  0.415095	
10.1123	  0.282278	  0.202903	  0.420075	
10.1455	  0.287052	  0.207795	  0.425861	
10.1788	  0.290212	  0.215230	  0.431803	
10.212	  0.291634	  0.223113	  0.437800	
10.2453	  0.291154	  0.229441	  0.443788	
10.2786	  0.288567	  0.233336	  0.449582	
10.3118	  0.283867	  0.235207	  0.455058	
10.3451	  0.277573	  0.236025	  0.460207	
10.3784	  0.270798	  0.236357	  0.464866	
10.4116	  0.264859	  0.235982	  0.468462	
10.4449	  0.260689	  0.234271	  0.470124	
10.4782	  0.258513	  0.230859	  0.469123	
10.5114	  0.257958	  0.226008	  0.465294	
10.5447	  0.258420	  0.220462	  0.459206	
10.578	  0.259423	  0.215001	  0.451974	
10.6112	  0.260805	  0.210092	  0.444850	
10.6445	  0.262678	  0.205827	  0.438822	
10.6777	  0.265290	  0.202126	  0.434375	
10.711	  0.268926	  0.198942	  0.431349	
10.7443	  0.273842	  0.196299	  0.428827	
10.7775	  0.280062	  0.194191	  0.425308	
10.8108	  0.287113	  0.192534	  0.419409	
10.8441	  0.294029	  0.191227	  0.410818	
10.8773	  0.299812	  0.190199	  0.400668	
10.9106	  0.304051	  0.189265	  0.390865	
10.9439	  0.307116	  0.187919	  0.382807	
10.9771	  0.309721	  0.185348	  0.376377	
11.0104	  0.312132	  0.180828	  0.369825	
11.0436	  0.313545	  0.174248	  0.360550	
11.0769	  0.312087	  0.166311	  0.346370	
11.1102	  0.305637	  0.158170	  0.326601	
11.1434	  0.293153	  0.150735	  0.302270	
11.1767	  0.275674	  0.144234	  0.275339	
11.21	  0.256236	  0.138355	  0.247566	
11.2432	  0.238649	  0.132774	  0.219855	
11.2765	  0.225878	  0.127540	  0.192448	
11.3098	  0.218979	  0.122984	  0.165564	
11.343	  0.217096	  0.119277	  0.139855	
11.3763	  0.218371	  0.116088	  0.116362	
11.4096	  0.221154	  0.112690	  0.096139	
11.4428	  0.224792	  0.108460	  0.079880	
11.4761	  0.229614	  0.103348	  0.067748	
11.5093	  0.236260	  0.097918	  0.059373	
11.5426	  0.244822	  0.092937	  0.053985	
11.5759	  0.254341	  0.088899	  0.050670	
11.6091	  0.262891	  0.085893	  0.048669	
11.6424	  0.268239	  0.083820	  0.047513	
11.6757	  0.268772	  0.082624	  0.046928	
11.7089	  0.264254	  0.082291	  0.046623	
11.7422	  0.255952	  0.082673	  0.046209	
11.7755	  0.245994	  0.083417	  0.045342	
11.8087	  0.236360	  0.084095	  0.043930	
11.842	  0.228137	  0.084411	  0.042177	
11.8752	  0.221465	  0.084299	  0.040410	
11.9085	  0.216051	  0.083870	  0.038852	
11.9418	  0.211763	  0.083302	  0.037538	
11.975	  0.208789	  0.082750	  0.036397	
12.0083	  0.207275	  0.082306	  0.035367	
12.0416	  0.206897	  0.081988	  0.034453	
